<svg width="902" height="760" viewBox="0 0 902 760" fill="none" xmlns="http://www.w3.org/2000/svg">
<path d="M832 54C622.32 149.794 686.577 405.962 411.513 416.725C202.24 424.914 -140.12 493.788 -204 759" stroke="#FE9F8E" stroke-width="2.15" stroke-linejoin="round" stroke-dasharray="5 5"/>
<path d="M900.702 20.2561C900.713 20.2299 900.727 20.2046 900.736 20.1778C900.765 20.0954 900.778 20.007 900.789 19.9184C900.793 19.8961 900.801 19.8764 900.803 19.8537C900.813 19.7348 900.806 19.6135 900.781 19.4917C900.777 19.4708 900.77 19.4502 900.765 19.4291C900.764 19.4262 900.764 19.4227 900.764 19.419C900.764 19.4164 900.761 19.4143 900.761 19.4105C900.757 19.3957 900.754 19.3801 900.749 19.3665C900.71 19.2429 900.653 19.1334 900.584 19.0337C900.568 19.0117 900.547 18.9957 900.53 18.9745C900.467 18.8951 900.397 18.8248 900.317 18.7674C900.282 18.742 900.245 18.7235 900.207 18.7035C900.135 18.6633 900.061 18.6323 899.981 18.6106C899.939 18.5992 899.899 18.5895 899.855 18.5837C899.827 18.5801 899.802 18.5677 899.773 18.5663L835.778 13.9903C835.323 13.9585 834.898 14.2421 834.717 14.7016C834.537 15.1611 834.639 15.6959 834.972 16.0388L849.841 31.3163L848.289 50.7508C848.284 50.7639 848.283 50.7797 848.279 50.7931C848.246 50.8815 848.222 50.9704 848.21 51.0639C848.204 51.1112 848.199 51.1563 848.198 51.204C848.195 51.32 848.208 51.4334 848.237 51.5453C848.243 51.5667 848.237 51.5884 848.244 51.6102C848.246 51.6169 848.25 51.623 848.253 51.6289C848.261 51.6547 848.276 51.6775 848.286 51.704C848.319 51.7851 848.355 51.8612 848.4 51.9303C848.408 51.9412 848.411 51.9557 848.419 51.9668C848.432 51.9841 848.449 51.9929 848.462 52.0091C848.514 52.0741 848.57 52.1317 848.633 52.1825C848.658 52.2025 848.681 52.2241 848.708 52.2421C848.794 52.3002 848.886 52.3501 848.984 52.3797L848.988 52.3806C848.992 52.3819 848.996 52.3809 849.001 52.3821C849.018 52.3886 849.036 52.3951 849.053 52.4005C849.342 52.4878 849.639 52.4248 849.886 52.2646L863.548 47.3087L873.515 59.5897C873.656 59.7626 873.838 59.8854 874.038 59.9456C874.147 59.9787 874.264 59.993 874.381 59.9866C874.709 59.9676 875.012 59.7861 875.203 59.4921L900.6 20.4514C900.623 20.4166 900.645 20.38 900.664 20.3417C900.673 20.3258 900.678 20.3089 900.685 20.2939C900.691 20.2822 900.697 20.2691 900.702 20.2561ZM886.8 23.9062L856.747 36.5212C856.698 36.5421 856.655 36.5735 856.61 36.6016C856.593 36.6113 856.577 36.6186 856.562 36.63C856.533 36.6497 856.507 36.67 856.48 36.6926C856.454 36.7144 856.432 36.7386 856.409 36.7621C856.353 36.8191 856.303 36.8802 856.259 36.9482C856.25 36.9615 856.239 36.9704 856.231 36.984C856.229 36.9883 856.224 36.9893 856.222 36.9935L850.814 46.349L851.973 31.8322L886.8 23.9062ZM851.885 49.0383L857.288 39.5986L860.934 44.0922L861.977 45.3774L856.892 47.2218L851.885 49.0383ZM891.696 20.3667L851.294 29.5613L838.652 16.5735L891.696 20.3667ZM874.226 56.904L860.99 40.5961L858.985 38.1255L896.756 22.2699L874.226 56.904Z" fill="#1964F6"/>
</svg>
