<svg width="367" height="389" viewBox="0 0 367 389" fill="none" xmlns="http://www.w3.org/2000/svg">
<path d="M0.346045 20.2561C0.335054 20.2299 0.320935 20.2046 0.312032 20.1778C0.283711 20.0954 0.270761 20.007 0.258856 19.9184C0.255548 19.8961 0.247304 19.8764 0.24504 19.8537C0.235714 19.7348 0.242616 19.6135 0.267352 19.4917C0.271159 19.4708 0.278381 19.4502 0.283231 19.4291C0.284751 19.4262 0.283897 19.4227 0.284089 19.419C0.284565 19.4164 0.287413 19.4143 0.287605 19.4105C0.291788 19.3957 0.294644 19.3801 0.29911 19.3665C0.337984 19.2429 0.394971 19.1334 0.464475 19.0337C0.480332 19.0117 0.50102 18.9957 0.518204 18.9745C0.581531 18.8951 0.651588 18.8248 0.731599 18.7674C0.766812 18.742 0.803729 18.7235 0.841405 18.7035C0.913343 18.6633 0.987552 18.6323 1.06745 18.6106C1.10949 18.5992 1.14972 18.5895 1.19317 18.5837C1.22145 18.5801 1.24641 18.5677 1.27525 18.5663L65.2703 13.9903C65.7258 13.9585 66.1508 14.2421 66.3311 14.7016C66.5114 15.1611 66.4096 15.6959 66.0762 16.0388L51.2071 31.3163L52.7592 50.7508C52.7647 50.7639 52.7652 50.7797 52.7697 50.7931C52.8028 50.8815 52.826 50.9704 52.838 51.0639C52.8442 51.1112 52.8497 51.1563 52.8504 51.204C52.8533 51.32 52.84 51.4334 52.8117 51.5453C52.8058 51.5667 52.8112 51.5884 52.8042 51.6102C52.8025 51.6169 52.7984 51.623 52.7954 51.6289C52.7872 51.6547 52.7727 51.6775 52.7624 51.704C52.7298 51.7851 52.6937 51.8612 52.6481 51.9303C52.6407 51.9412 52.6375 51.9557 52.6291 51.9668C52.6165 51.9841 52.5996 51.9929 52.5868 52.0091C52.5345 52.0741 52.4781 52.1317 52.4156 52.1825C52.3902 52.2025 52.3675 52.2241 52.3406 52.2421C52.254 52.3002 52.1621 52.3501 52.064 52.3797L52.0608 52.3806C52.0566 52.3819 52.0519 52.3809 52.0477 52.3821C52.0303 52.3886 52.0128 52.3951 51.9951 52.4005C51.7059 52.4878 51.4098 52.4248 51.1624 52.2646L37.5007 47.3087L27.5338 59.5897C27.3927 59.7626 27.21 59.8854 27.0107 59.9456C26.9011 59.9787 26.7846 59.993 26.6674 59.9866C26.3395 59.9676 26.0364 59.7861 25.8456 59.4921L0.4484 20.4514C0.425175 20.4166 0.403757 20.38 0.384139 20.3417C0.375704 20.3258 0.370398 20.3089 0.36329 20.2939C0.357035 20.2822 0.35154 20.2691 0.346045 20.2561ZM14.248 23.9062L44.3016 36.5212C44.3505 36.5421 44.3931 36.5735 44.4383 36.6016C44.4552 36.6113 44.4716 36.6186 44.4868 36.63C44.5153 36.6497 44.5416 36.67 44.5686 36.6926C44.5942 36.7144 44.6159 36.7386 44.6397 36.7621C44.6953 36.8191 44.7453 36.8802 44.7891 36.9482C44.798 36.9615 44.8092 36.9704 44.8171 36.984C44.8192 36.9883 44.824 36.9893 44.8262 36.9935L50.2346 46.349L49.0754 31.8322L14.248 23.9062ZM49.163 49.0383L43.7607 39.5986L40.1143 44.0922L39.0712 45.3774L44.1565 47.2218L49.163 49.0383ZM9.35226 20.3667L49.7548 29.5613L62.3962 16.5735L9.35226 20.3667ZM26.8222 56.904L40.0587 40.5961L42.0631 38.1255L4.2919 22.2699L26.8222 56.904Z" fill="#1964F6"/>
<path fill-rule="evenodd" clip-rule="evenodd" d="M70.9532 55.9815C70.1835 55.622 69.41 55.2647 68.6328 54.9096L69.4639 53.0905C70.2462 53.4479 71.0248 53.8075 71.7996 54.1694C72.2999 54.4031 72.5161 54.9982 72.2825 55.4986C72.0487 55.999 71.4536 56.2152 70.9532 55.9815ZM75.5275 58.1648C75.0311 57.9227 74.825 57.3241 75.067 56.8277C75.3092 56.3313 75.9078 56.1251 76.4042 56.3672C77.9242 57.1086 79.4294 57.8586 80.92 58.6171C81.4123 58.8676 81.6083 59.4697 81.3578 59.9619C81.1074 60.4541 80.5052 60.6501 80.0131 60.3996C78.5325 59.6462 77.0374 58.9012 75.5275 58.1648ZM84.4116 62.6849C83.9237 62.4261 83.738 61.8208 83.9968 61.3329C84.2556 60.845 84.8608 60.6593 85.3488 60.9181C86.83 61.7037 88.2965 62.4979 89.7487 63.3005C90.2321 63.5677 90.4073 64.1761 90.1401 64.6595C89.873 65.1429 89.2646 65.3181 88.7812 65.051C87.3391 64.2539 85.8827 63.4652 84.4116 62.6849ZM93.1948 67.5417C92.7162 67.266 92.5518 66.6546 92.8275 66.176C93.1032 65.6975 93.7147 65.5331 94.1932 65.8088C95.6595 66.6536 97.1109 67.5072 98.5475 68.3693C99.0211 68.6535 99.1746 69.2677 98.8904 69.7413C98.6062 70.2149 97.9919 70.3684 97.5184 70.0842C96.092 69.2282 94.6508 68.3807 93.1948 67.5417ZM101.754 72.6773C101.285 72.3848 101.143 71.7679 101.435 71.2994C101.728 70.831 102.345 70.6884 102.813 70.9809C104.235 71.8691 105.643 72.7657 107.036 73.6706C107.499 73.9715 107.63 74.5909 107.329 75.054C107.028 75.5171 106.409 75.6486 105.946 75.3477C104.563 74.4493 103.166 73.5591 101.754 72.6773ZM110.161 78.1417C109.704 77.8324 109.584 77.2107 109.893 76.7532C110.202 76.2956 110.824 76.1755 111.281 76.4848C112.682 77.4315 114.067 78.3867 115.438 79.3502C115.89 79.6679 115.998 80.2916 115.681 80.7434C115.363 81.1952 114.739 81.304 114.288 80.9864C112.927 80.0298 111.552 79.0815 110.161 78.1417ZM118.327 83.8807C117.881 83.555 117.783 82.9294 118.109 82.4834C118.435 82.0374 119.06 81.9399 119.506 82.2656C120.865 83.2579 122.208 84.2584 123.538 85.267C123.978 85.6008 124.064 86.2281 123.73 86.6681C123.396 87.1081 122.769 87.1942 122.329 86.8604C121.009 85.859 119.675 84.8658 118.327 83.8807ZM126.318 89.9444C125.884 89.6026 125.809 88.9739 126.151 88.5401C126.493 88.1063 127.122 88.0317 127.556 88.3735C128.88 89.4173 130.19 90.4692 131.486 91.529C131.914 91.8787 131.977 92.5087 131.627 92.9362C131.277 93.3637 130.647 93.4268 130.22 93.0772C128.933 92.025 127.633 90.9807 126.318 89.9444ZM134.038 96.2572C133.617 95.8999 133.565 95.2689 133.922 94.8477C134.279 94.4265 134.91 94.3747 135.331 94.732C136.62 95.8246 137.893 96.9251 139.153 98.0333C139.568 98.3981 139.609 99.03 139.244 99.4447C138.879 99.8594 138.247 99.8998 137.833 99.5351C136.581 98.4347 135.317 97.342 134.038 96.2572ZM141.577 102.888C141.169 102.516 141.14 101.884 141.512 101.476C141.884 101.067 142.516 101.038 142.924 101.41C144.167 102.544 145.397 103.685 146.613 104.833C147.014 105.212 147.032 105.845 146.653 106.246C146.274 106.648 145.641 106.666 145.24 106.287C144.032 105.147 142.811 104.014 141.577 102.888ZM148.823 109.729C148.428 109.343 148.421 108.71 148.807 108.315C149.193 107.92 149.826 107.913 150.221 108.299C151.433 109.483 152.631 110.675 153.817 111.874C154.205 112.266 154.201 112.9 153.809 113.288C153.416 113.676 152.783 113.673 152.394 113.28C151.217 112.089 150.027 110.906 148.823 109.729ZM155.89 116.875C155.508 116.476 155.522 115.843 155.921 115.461C156.321 115.079 156.954 115.094 157.335 115.493C158.495 116.706 159.643 117.926 160.778 119.152C161.153 119.558 161.128 120.19 160.723 120.565C160.318 120.94 159.685 120.916 159.31 120.511C158.182 119.292 157.042 118.08 155.89 116.875ZM162.675 124.206C162.307 123.795 162.341 123.163 162.753 122.794C163.164 122.425 163.796 122.46 164.165 122.871C165.292 124.129 166.406 125.393 167.509 126.663C167.871 127.08 167.827 127.711 167.41 128.073C166.993 128.435 166.361 128.391 165.999 127.974C164.903 126.712 163.795 125.456 162.675 124.206ZM169.252 131.779C168.897 131.356 168.951 130.725 169.373 130.37C169.796 130.014 170.427 130.068 170.782 130.491C171.862 131.772 172.93 133.06 173.987 134.354C174.336 134.781 174.273 135.411 173.845 135.761C173.418 136.11 172.788 136.047 172.438 135.619C171.387 134.333 170.326 133.053 169.252 131.779ZM175.587 139.529C175.244 139.096 175.316 138.467 175.749 138.124C176.181 137.781 176.81 137.853 177.154 138.286C178.2 139.604 179.236 140.928 180.261 142.257C180.599 142.694 180.518 143.322 180.081 143.66C179.643 143.997 179.015 143.916 178.678 143.479C177.658 142.157 176.628 140.84 175.587 139.529ZM181.707 147.46C181.376 147.018 181.465 146.391 181.907 146.06C182.349 145.728 182.975 145.817 183.307 146.259C184.315 147.602 185.312 148.949 186.3 150.301C186.626 150.747 186.529 151.372 186.083 151.698C185.637 152.024 185.012 151.927 184.686 151.481C183.703 150.136 182.71 148.795 181.707 147.46ZM187.624 155.553C187.303 155.103 187.408 154.478 187.858 154.158C188.308 153.837 188.932 153.942 189.253 154.392C190.227 155.76 191.193 157.133 192.149 158.509C192.465 158.963 192.353 159.586 191.899 159.901C191.446 160.216 190.822 160.104 190.507 159.651C189.555 158.28 188.594 156.914 187.624 155.553ZM193.339 163.774C193.029 163.317 193.148 162.695 193.605 162.385C194.062 162.075 194.684 162.194 194.994 162.651C195.938 164.042 196.875 165.437 197.803 166.836C198.108 167.296 197.983 167.917 197.522 168.222C197.062 168.528 196.442 168.402 196.136 167.942C195.212 166.549 194.28 165.159 193.339 163.774ZM198.889 172.136C198.589 171.673 198.72 171.053 199.183 170.753C199.647 170.452 200.266 170.583 200.567 171.047C201.48 172.453 202.386 173.863 203.285 175.276C203.582 175.742 203.445 176.36 202.979 176.656C202.513 176.953 201.895 176.816 201.598 176.35C200.702 174.942 199.8 173.537 198.889 172.136ZM204.271 180.59C203.978 180.122 204.121 179.505 204.589 179.212C205.058 178.92 205.675 179.062 205.967 179.531C206.857 180.956 207.741 182.385 208.618 183.815C208.906 184.286 208.759 184.901 208.288 185.19C207.817 185.479 207.201 185.331 206.913 184.86C206.038 183.434 205.158 182.011 204.271 180.59ZM209.518 189.145C209.233 188.672 209.385 188.058 209.858 187.773C210.331 187.487 210.945 187.64 211.231 188.113C212.096 189.547 212.955 190.984 213.809 192.422C214.091 192.897 213.935 193.51 213.46 193.792C212.985 194.074 212.372 193.918 212.09 193.443C211.238 192.009 210.381 190.576 209.518 189.145ZM214.642 197.772C214.363 197.295 214.523 196.683 214.999 196.404C215.476 196.125 216.089 196.285 216.368 196.761C217.216 198.21 218.059 199.659 218.897 201.11C219.174 201.588 219.01 202.2 218.532 202.476C218.054 202.753 217.442 202.589 217.166 202.111C216.329 200.663 215.488 199.217 214.642 197.772ZM219.665 206.458C219.39 205.978 219.557 205.367 220.036 205.093C220.516 204.819 221.127 204.985 221.401 205.465C222.233 206.921 223.062 208.378 223.887 209.836C224.159 210.316 223.99 210.927 223.509 211.199C223.029 211.471 222.419 211.302 222.147 210.821C221.323 209.366 220.496 207.911 219.665 206.458ZM224.614 215.199C224.344 214.717 224.515 214.107 224.997 213.837C225.478 213.567 226.088 213.738 226.358 214.22C227.179 215.681 227.996 217.143 228.811 218.604C229.08 219.086 228.907 219.695 228.425 219.964C227.942 220.233 227.333 220.06 227.064 219.578C226.25 218.118 225.434 216.658 224.614 215.199ZM229.501 223.96C229.233 223.477 229.408 222.869 229.891 222.601C230.374 222.333 230.982 222.507 231.25 222.99C232.065 224.459 232.877 225.927 233.688 227.395C233.956 227.878 233.78 228.486 233.297 228.753C232.814 229.021 232.205 228.845 231.938 228.362C231.127 226.895 230.315 225.428 229.501 223.96ZM234.366 232.76C234.099 232.276 234.275 231.668 234.758 231.401C235.242 231.134 235.85 231.31 236.117 231.794C236.788 233.011 237.459 234.228 238.13 235.444L238.539 236.186C238.805 236.67 238.629 237.278 238.146 237.545C237.662 237.811 237.054 237.635 236.787 237.152L236.269 236.213C235.635 235.062 235.001 233.911 234.366 232.76ZM239.216 241.556C238.949 241.072 239.125 240.464 239.608 240.197C240.092 239.93 240.7 240.106 240.967 240.589C241.778 242.058 242.588 243.524 243.399 244.989C243.666 245.472 243.491 246.081 243.008 246.348C242.525 246.616 241.916 246.441 241.649 245.958C240.838 244.492 240.027 243.025 239.216 241.556ZM244.084 250.347C243.816 249.865 243.989 249.256 244.472 248.988C244.955 248.719 245.563 248.893 245.832 249.376C246.646 250.839 247.46 252.3 248.276 253.758C248.546 254.24 248.374 254.85 247.892 255.119C247.41 255.389 246.8 255.217 246.531 254.735C245.714 253.275 244.898 251.812 244.084 250.347ZM248.996 259.125C248.725 258.644 248.895 258.034 249.376 257.763C249.857 257.492 250.467 257.662 250.738 258.143C251.561 259.601 252.385 261.056 253.212 262.508C253.485 262.988 253.317 263.599 252.837 263.872C252.357 264.145 251.747 263.978 251.474 263.498C250.646 262.043 249.82 260.586 248.996 259.125ZM253.966 267.851C253.69 267.373 253.855 266.761 254.334 266.486C254.812 266.21 255.424 266.375 255.699 266.853C256.537 268.308 257.377 269.759 258.221 271.206C258.499 271.683 258.338 272.295 257.861 272.574C257.384 272.852 256.772 272.691 256.493 272.214C255.648 270.763 254.805 269.309 253.966 267.851ZM259.042 276.552C258.761 276.077 258.918 275.463 259.393 275.182C259.869 274.901 260.482 275.058 260.763 275.533C261.614 276.971 262.469 278.405 263.328 279.833C263.613 280.306 263.46 280.921 262.987 281.206C262.514 281.49 261.899 281.337 261.615 280.864C260.753 279.431 259.895 277.994 259.042 276.552ZM264.227 285.17C263.939 284.699 264.087 284.083 264.558 283.795C265.029 283.506 265.645 283.654 265.933 284.125C266.808 285.554 267.688 286.977 268.573 288.394C268.865 288.863 268.723 289.48 268.254 289.772C267.786 290.065 267.169 289.922 266.876 289.454C265.988 288.031 265.105 286.603 264.227 285.17ZM269.559 293.705C269.262 293.24 269.399 292.621 269.865 292.324C270.33 292.027 270.949 292.164 271.246 292.63C272.145 294.039 273.05 295.443 273.961 296.84C274.263 297.303 274.133 297.922 273.67 298.224C273.208 298.526 272.588 298.396 272.286 297.933C271.371 296.53 270.462 295.121 269.559 293.705ZM275.065 302.14C274.758 301.681 274.881 301.06 275.34 300.753C275.799 300.446 276.42 300.569 276.727 301.028C277.656 302.418 278.592 303.801 279.536 305.176C279.848 305.631 279.732 306.254 279.277 306.566C278.822 306.879 278.199 306.763 277.887 306.307C276.938 304.925 275.998 303.536 275.065 302.14ZM280.758 310.436C280.439 309.985 280.547 309.361 280.999 309.042C281.45 308.724 282.074 308.832 282.392 309.284C283.357 310.651 284.329 312.011 285.31 313.364C285.635 313.811 285.536 314.436 285.089 314.76C284.642 315.085 284.016 314.985 283.692 314.538C282.705 313.178 281.727 311.811 280.758 310.436ZM286.68 318.594C286.349 318.152 286.44 317.525 286.882 317.194C287.324 316.864 287.951 316.954 288.281 317.396C289.281 318.732 290.29 320.06 291.309 321.379C291.646 321.816 291.565 322.444 291.128 322.782C290.691 323.119 290.063 323.039 289.726 322.601C288.701 321.274 287.686 319.938 286.68 318.594ZM292.838 326.566C292.494 326.135 292.564 325.505 292.996 325.161C293.427 324.816 294.057 324.887 294.401 325.318C295.443 326.623 296.495 327.919 297.558 329.205C297.909 329.63 297.85 330.261 297.424 330.613C296.998 330.964 296.368 330.905 296.016 330.479C294.946 329.184 293.887 327.879 292.838 326.566ZM299.261 334.336C298.902 333.917 298.951 333.285 299.37 332.926C299.789 332.567 300.421 332.616 300.78 333.035C301.865 334.301 302.96 335.557 304.068 336.803C304.435 337.216 304.398 337.848 303.986 338.215C303.573 338.582 302.941 338.545 302.574 338.132C301.457 336.877 300.353 335.611 299.261 334.336ZM305.958 341.866C305.583 341.46 305.608 340.828 306.014 340.453C306.419 340.078 307.052 340.103 307.427 340.509C308.559 341.734 309.703 342.948 310.861 344.152C311.244 344.55 311.232 345.183 310.834 345.566C310.435 345.949 309.802 345.936 309.42 345.538C308.253 344.325 307.099 343.101 305.958 341.866ZM312.952 349.137C312.561 348.747 312.561 348.114 312.951 347.723C313.341 347.332 313.974 347.332 314.365 347.722C315.541 348.896 316.731 350.059 317.935 351.21C318.334 351.592 318.348 352.225 317.966 352.624C317.584 353.023 316.951 353.037 316.552 352.655C315.338 351.494 314.138 350.321 312.952 349.137ZM320.237 356.106C319.83 355.733 319.802 355.1 320.175 354.693C320.548 354.286 321.181 354.258 321.588 354.631C322.819 355.758 324.064 356.874 325.324 357.978C325.74 358.342 325.782 358.974 325.418 359.389C325.054 359.805 324.422 359.846 324.007 359.483C322.735 358.369 321.479 357.243 320.237 356.106ZM327.819 362.747C327.396 362.393 327.34 361.762 327.694 361.338C328.049 360.915 328.679 360.859 329.103 361.213C330.377 362.28 331.667 363.335 332.972 364.377C333.404 364.722 333.474 365.351 333.13 365.782C332.785 366.214 332.156 366.284 331.724 365.94C330.407 364.888 329.105 363.823 327.819 362.747ZM335.725 369.058C335.285 368.724 335.2 368.097 335.535 367.657C335.869 367.218 336.496 367.132 336.936 367.467C338.251 368.468 339.582 369.456 340.929 370.432C341.377 370.756 341.477 371.381 341.153 371.829C340.828 372.276 340.203 372.376 339.756 372.052C338.396 371.066 337.052 370.069 335.725 369.058ZM343.864 374.955C343.409 374.642 343.295 374.019 343.608 373.564C343.921 373.109 344.544 372.995 344.999 373.308C346.372 374.254 347.761 375.187 349.167 376.108C349.63 376.41 349.759 377.03 349.457 377.492C349.154 377.954 348.534 378.084 348.072 377.781C346.653 376.852 345.25 375.91 343.864 374.955ZM352.335 380.499C351.866 380.208 351.722 379.591 352.013 379.122C352.304 378.653 352.921 378.508 353.39 378.8C354.787 379.667 356.201 380.522 357.632 381.365C358.108 381.645 358.266 382.258 357.986 382.734C357.706 383.21 357.093 383.368 356.617 383.088C355.173 382.238 353.746 381.375 352.335 380.499ZM361.001 385.6C360.518 385.331 360.345 384.722 360.614 384.239C360.883 383.757 361.492 383.584 361.974 383.853C363.439 384.669 364.921 385.472 366.421 386.262C366.91 386.52 367.097 387.124 366.84 387.613C366.583 388.102 365.978 388.289 365.489 388.032C363.975 387.235 362.479 386.424 361.001 385.6Z" fill="#FE9F8E"/>
</svg>
